<?xml version="1.0" encoding="UTF-8" standalone="no"?>
<svg
   viewBox="0 0 600 400"
   version="1.1"
   id="svg12"
   sodipodi:docname="flag-pt.svg"
   inkscape:version="1.4.2 (f4327f4, 2025-05-13)"
   xmlns:inkscape="http://www.inkscape.org/namespaces/inkscape"
   xmlns:sodipodi="http://sodipodi.sourceforge.net/DTD/sodipodi-0.dtd"
   xmlns="http://www.w3.org/2000/svg"
   xmlns:svg="http://www.w3.org/2000/svg">
  <defs
     id="defs12" />
  <sodipodi:namedview
     id="namedview12"
     pagecolor="#ffffff"
     bordercolor="#000000"
     borderopacity="0.25"
     inkscape:showpageshadow="2"
     inkscape:pageopacity="0.0"
     inkscape:pagecheckerboard="0"
     inkscape:deskcolor="#d1d1d1"
     inkscape:zoom="2.7925"
     inkscape:cx="300.08953"
     inkscape:cy="199.82095"
     inkscape:window-width="3840"
     inkscape:window-height="2054"
     inkscape:window-x="3373"
     inkscape:window-y="-11"
     inkscape:window-maximized="1"
     inkscape:current-layer="svg12" />
  <rect
     fill="#006600"
     width="600"
     height="400"
     id="rect1" />
  <rect
     fill="#FF0000"
     x="240"
     width="360"
     height="400"
     id="rect2" />
  <circle
     cx="240"
     cy="200"
     r="80"
     fill="#FFFF00"
     stroke="#000"
     stroke-width="2"
     id="circle2" />
  <circle
     cx="240"
     cy="200"
     r="65"
     fill="#FFFFFF"
     id="circle3" />
  <g
     fill="#0000FF"
     id="g12">
    <circle
       cx="240"
       cy="200"
       r="8"
       id="circle4" />
    <circle
       cx="240"
       cy="155"
       r="8"
       id="circle5" />
    <circle
       cx="240"
       cy="245"
       r="8"
       id="circle6" />
    <circle
       cx="265"
       cy="200"
       r="8"
       id="circle7" />
    <circle
       cx="215"
       cy="200"
       r="8"
       id="circle8" />
    <circle
       cx="227"
       cy="175"
       r="8"
       id="circle9" />
    <circle
       cx="253"
       cy="175"
       r="8"
       id="circle10" />
    <circle
       cx="227"
       cy="225"
       r="8"
       id="circle11" />
    <circle
       cx="253"
       cy="225"
       r="8"
       id="circle12" />
  </g>
  <path
     style="fill:#ffff00;fill-opacity:1"
     d="m 276.81289,180.84154 c -0.98312,1.96624 -0.18238,1.43241 -2.50671,1.43241 -1.31304,0 -2.64395,-0.21586 -3.93913,0 -2.48584,0.41431 -4.09373,1.26782 -6.44583,1.79051 -1.30279,0.28951 -2.6953,0.23249 -3.93913,0.7162 -0.95701,0.37218 -1.57191,1.3656 -2.50671,1.79051 -0.43467,0.19758 -0.96049,-0.0726 -1.43241,0 -1.08771,0.16734 -2.14861,0.47747 -3.22292,0.71621 -2.14861,0.47747 -4.44496,0.51534 -6.44583,1.43241 -3.7964,1.74001 -6.96892,4.65808 -10.74307,6.44583 -3.07022,1.45432 -6.49406,2.01351 -9.66875,3.22292 -1.84644,0.70341 -3.53,1.79056 -5.37153,2.50672 -0.33375,0.12979 -1.07431,-0.35811 -1.07431,0 0,0.3581 0.77635,0.19863 1.07431,0 0.19864,-0.13243 -0.23305,-0.66442 0,-0.71621 2.16989,-0.4822 4.53567,0.29914 4.65533,0 0.22165,-0.55415 -0.42203,-1.36848 0,-1.79051 0.59083,-0.59084 1.67114,0 2.50671,0"
     id="path12" />
  <path
     style="fill:#ffff00;fill-opacity:1"
     d="m 212.35452,140.37601 c -1.55852,3.89631 0.44977,-0.27111 -2.50671,3.22292 -0.83402,0.98565 -1.05932,2.52972 -2.14862,3.22291 -1.68813,1.07427 -3.89045,1.0023 -5.72963,1.79051 -0.70252,0.30109 -1.19895,0.94841 -1.79051,1.43241 -0.72155,0.59036 -1.54189,1.08267 -2.14861,1.79051 -0.54378,0.63442 0.4299,1.79022 0,2.50672 -0.18424,0.30707 -0.77635,-0.19864 -1.07431,0 -0.39728,0.26485 0.21353,1.00534 0,1.43241 -0.83044,1.66088 -3.02874,2.32067 -3.93912,3.93912 -0.40965,0.72826 0.22955,1.70329 0,2.50671 -0.0656,0.22955 -0.50267,-0.10676 -0.7162,0 -1.46259,-0.009 -0.19313,1.41689 -0.71621,1.79051 -0.70714,0.5051 -1.78365,0.23417 -2.50671,0.71621 -1.02256,0.6817 -0.92151,2.35391 -1.79051,3.22292 -0.37748,0.37747 -1.16756,0.25271 -1.43241,0.7162 -0.29612,0.5182 0.22166,1.23636 0,1.79051 -0.0887,0.22166 -0.54739,-0.16881 -0.71621,0 -0.27754,0.27754 0.0846,4.00658 0,4.65533 -0.25132,1.92683 -0.77432,3.80976 -1.0743,5.72963 -0.29714,1.90167 -0.14571,3.89138 -0.71621,5.72963 -0.52238,1.68324 -1.94938,2.98333 -2.50671,4.65533 -1.0303,3.0909 -0.44454,6.56403 -1.43241,9.66876 -0.37262,1.1711 -1.29792,2.09699 -1.79051,3.22291 -0.34831,0.79615 -0.36327,1.71261 -0.7162,2.50672 -0.13712,0.30852 -0.56522,0.41422 -0.71621,0.7162 -0.10676,0.21353 0.0518,0.48316 0,0.71621 -0.18851,0.84831 -0.52769,1.6584 -0.7162,2.50671 -0.32611,1.46749 0.17126,3.78732 0.7162,5.01343 0.13712,0.30852 0.56522,0.41423 0.71621,0.7162 0.37368,0.74736 0,1.67115 0,2.50672 0,0.3581 -0.30707,-0.89007 0,-1.07431 0.51178,-0.30707 1.19367,0 1.79051,0"
     id="path13" />
  <path
     style="fill:#ffff00;fill-opacity:1"
     d="m 189.79409,210.56401 c 31.07445,1.24298 4.74847,-0.52197 37.95882,3.93912 1.30135,0.17481 2.63411,-0.145 3.93912,0 1.93128,0.21459 3.79836,0.85972 5.72964,1.07431 2.24452,0.24939 4.86514,0 7.16204,0"
     id="path14" />
  <path
     style="fill:#ffff00;fill-opacity:1"
     d="m 238.13787,178.33483 c 0.83557,0.23873 1.68649,0.42912 2.50671,0.7162 10.10797,3.53779 -1.51398,0.5921 15.39839,3.22292 1.80427,0.28066 3.54556,1.0743 5.37153,1.0743 2.83587,0 2.50672,-2.46213 2.50672,0"
     id="path15" />
  <path
     style="fill:#ffff00;fill-opacity:1"
     d="m 209.84781,184.06446 c 8.33413,5.35766 3.98967,3.32196 17.9051,6.44584 3.43292,0.77065 3.44484,0.7162 5.72963,0.7162"
     id="path16" />
  <path
     style="fill:#ffff00;fill-opacity:1"
     id="path17"
     d="m 229.82272,199.26139 c -0.56299,-0.14679 -1.13023,-0.27816 -1.68898,-0.44037 -0.66088,-0.19186 -1.30636,-0.43484 -1.96873,-0.62152 -2.7506,-0.77526 -1.82521,-0.40704 -4.64264,-1.08125 -2.21515,-0.53008 -2.67244,-0.71436 -4.82241,-1.39046 -2.22993,-0.5803 -4.44932,-1.24045 -6.7281,-1.61159 -0.68169,-0.11103 -2.51307,-0.38113 -3.28305,-0.13116 -0.46854,0.15211 -0.82889,0.53258 -1.24333,0.79886 -0.26531,0.36193 -0.59677,0.68365 -0.79593,1.0858 -1.19682,2.4166 0.22698,5.01154 1.39234,7.10409 0.89117,1.31391 1.8335,2.96207 3.27751,3.76186 14.00587,7.7573 8.66286,7.37759 15.40973,7.56959 2.4711,0.001 4.88179,-0.43907 7.28817,-0.94447 1.33095,-0.27953 3.79838,-0.80426 5.11712,-1.16952 0.75269,-0.20848 1.4891,-0.47183 2.23365,-0.70774 0.62206,-0.38459 1.27697,-0.72052 1.86618,-1.15378 1.67252,-1.22984 3.26588,-3.08916 3.48036,-5.24514 0.0451,-0.45314 -0.0429,-0.90975 -0.0643,-1.36463 -0.22524,-0.51497 -0.37712,-1.06872 -0.67574,-1.54491 -0.84416,-1.34611 -2.11688,-2.4313 -3.29025,-3.4586 -3.07433,-2.69163 -6.35588,-5.07769 -9.66476,-7.46847 -1.45754,-1.04009 -2.91052,-2.08658 -4.3726,-3.12027 -3.06004,-2.16345 -6.10571,-4.3472 -9.16657,-6.50948 -1.49336,-1.05495 -6.16053,-4.30839 -7.94626,-5.35507 -5.03291,-2.94996 -10.13453,-5.78113 -15.20179,-8.6717 -1.40698,-0.47509 -2.63778,-1.22089 -4.16485,-0.69114 -1.71295,0.59424 -2.43747,2.62931 -2.63339,4.22964 -0.0736,0.60146 -0.0218,1.21171 -0.0326,1.81757 0.11489,0.72947 0.16621,1.47184 0.34466,2.18842 1.36133,5.46656 4.70753,10.11649 8.07433,14.51149 1.42589,1.65114 2.87241,3.46511 4.81093,4.56255 4.76762,2.69906 9.5154,5.44298 14.40598,7.91226 0.5399,0.27261 1.19052,0.2969 1.79462,0.26755 0.60815,-0.0296 1.18173,-0.29391 1.77259,-0.44087 0.5487,-0.28164 1.14,-0.4924 1.64609,-0.84491 1.83793,-1.28019 3.3032,-3.55353 4.45263,-5.39442 2.62686,-4.20707 2.30788,-3.86742 4.79803,-8.73997 6.18852,-13.35779 10.88152,-27.32712 16.09397,-41.07722 1.44097,-3.83225 2.78899,-7.70329 4.36359,-11.48436 0.24157,-0.58007 0.48759,-1.15895 0.76232,-1.72407 0.45457,-0.93507 0.18188,-0.91002 0.69103,-0.84409 -17.23595,-9.14133 -12.95489,-10.71256 -12.71726,-4.30644 0.0324,0.8741 -0.0274,1.75032 0.0134,2.62407 0.0211,0.45097 0.0859,0.89883 0.12886,1.34824 0.25226,1.30504 0.84253,2.65127 2.04258,3.37751 10.04892,6.08136 9.74691,7.31083 16.92745,8.73808 1.88467,0.23567 3.78683,0.28556 5.68317,0.3479 0.8641,0.0284 2.609,0.0299 3.49578,0.19303 0.5076,0.0934 0.99079,0.28954 1.48618,0.43431 0.41807,0.19992 0.83613,0.39983 1.2542,0.59974 -3.89197,-2.15443 -7.69281,-4.48242 -11.67592,-6.46328 -0.4172,-0.20749 0.63194,0.69283 0.87369,1.09116 0.33463,0.55136 0.58154,1.15193 0.84495,1.74065 0.95759,2.14021 1.09762,2.66521 1.90901,4.91508 1.03857,2.89468 1.98619,5.81994 3.04457,8.70747 0.19286,0.5262 0.34821,1.06786 0.58038,1.57793 0.26344,0.57876 0.60186,1.12037 0.90279,1.68055 0.43373,0.57844 0.83996,1.17855 1.30118,1.73531 0.5544,0.66922 1.16182,1.29268 1.74272,1.93903 0.58211,0.6805 1.17977,1.348 1.74632,2.04151 1.60387,1.96326 3.00847,4.04657 4.40163,6.16043 1.44109,2.18774 2.89063,4.37505 4.0964,6.70566 1.87554,3.62517 3.43859,7.41963 5.00991,11.18132 2.40965,6.04065 5.01658,12.00643 7.11539,18.1667 1.03718,3.04427 1.19459,3.74451 2.0217,6.68949 0.99444,3.87105 1.73344,7.87283 1.5664,11.88923 -0.0285,0.68503 -0.13476,1.36461 -0.20214,2.04691 0,0 13.01429,6.78737 13.01429,6.78737 v 0 c 0.0676,-0.73605 0.17128,-1.46967 0.20268,-2.20815 0.17702,-4.16241 -0.26916,-8.34443 -1.5199,-12.32315 -0.87069,-2.85024 -1.17981,-3.96365 -2.21431,-6.8825 -2.1802,-6.15139 -4.79622,-12.13101 -7.12793,-18.22376 -2.13809,-5.51453 -1.06793,-2.92084 -3.26621,-7.98901 -1.50241,-3.46383 -3.04431,-6.91645 -5.30282,-9.97142 -1.90938,-2.89847 -3.80268,-5.79831 -6.0826,-8.42754 -0.54211,-0.62517 -1.14388,-1.19636 -1.69707,-1.81174 -0.45288,-0.50378 -0.88025,-1.02992 -1.32038,-1.54488 -0.3324,-0.47194 -0.7249,-0.90684 -0.99722,-1.41582 -0.27128,-0.50706 -0.40922,-1.07492 -0.62134,-1.60944 -1.14423,-2.88338 -2.17252,-5.80628 -3.21751,-8.72748 -1.31166,-4.02108 -0.35253,-1.2082 -1.72165,-4.9353 -0.006,-0.0162 -1.11203,-3.24073 -1.34078,-3.39617 -11.3033,-7.6809 -8.86119,-6.83486 -15.09599,-8.67778 -0.53557,-0.0824 -1.06751,-0.19343 -1.60672,-0.24707 -3.00978,-0.29942 -6.09289,0.0229 -9.05324,-0.76067 -0.47405,-0.13543 -0.95787,-0.24039 -1.42213,-0.40629 -0.47318,-0.16909 -1.81335,-0.85821 -1.38436,-0.59658 3.77464,2.30201 7.62822,4.47206 11.43258,6.72461 0.38596,0.22853 -0.80573,-0.40053 -1.17696,-0.65228 -0.31579,-0.21415 -0.63827,-0.43902 -0.87432,-0.73879 -0.20987,-0.2665 -0.2885,-0.61403 -0.43275,-0.92105 -0.0859,-0.3798 -0.22196,-0.75165 -0.25775,-1.13939 -0.0419,-0.45434 0.0199,-0.91234 0.0262,-1.36857 0.006,-0.43152 0.008,-0.86308 0.011,-1.29463 0.0462,-7.13217 -0.28364,-3.34268 -13.33949,-10.31073 -0.12231,0.18124 -0.27229,0.34661 -0.36692,0.54372 -0.28769,0.59918 -0.87599,2.52921 -0.99425,2.90592 -1.23711,3.94085 -2.41172,7.90176 -3.75635,11.80832 -4.77702,13.82928 -9.33122,27.81505 -16.11134,40.82998 -2.82446,4.92591 -2.19855,4.15784 -5.19382,8.31335 -1.01393,1.40669 -2.62858,3.7036 -4.24608,4.59019 -0.44428,0.24352 -0.95426,0.34075 -1.4314,0.51113 -0.48174,0.0114 -0.96767,0.0986 -1.44522,0.0342 -4.00659,-0.54058 -14.92587,-8.57022 9.28302,6.08202 0.54399,0.32925 -1.13577,-0.5795 -1.66173,-0.93686 -1.69067,-1.14871 -2.10723,-1.75762 -3.56535,-3.27817 -3.47829,-4.20467 -6.69335,-8.40269 -8.18602,-13.7582 -0.17721,-0.63582 -0.24552,-1.29706 -0.36829,-1.94559 -0.0626,-1.11075 -0.36106,-2.80592 0.62106,-3.68328 1.14952,-1.0269 3.28522,0.35966 4.27962,0.68248 -3.09443,-1.84022 -6.1588,-3.73197 -9.28331,-5.52065 -1.30186,-0.74528 2.55821,1.5682 3.81357,2.38939 4.82771,3.15803 4.16986,2.88065 8.97251,6.30559 17.01422,12.13347 -7.48986,-5.49042 8.79464,6.24167 2.79447,2.01063 4.27447,3.00948 6.87718,5.11297 0.8244,0.66628 1.6081,1.38147 2.41936,2.06369 1.46111,1.22867 2.98687,2.38758 4.1098,3.95921 0.10442,0.29672 0.28197,0.57717 0.31327,0.89017 0.16865,1.68645 -1.43511,3.39673 -2.69261,4.25852 -0.51458,0.35266 -1.09223,0.60307 -1.63834,0.90461 -0.70837,0.21943 -1.40902,0.46557 -2.12512,0.65827 -1.11851,0.30099 -3.93373,0.90725 -5.06127,1.11229 -1.85077,0.33655 -3.15565,0.54292 -5.02992,0.56072 -0.73426,0.007 -1.46683,-0.0719 -2.20024,-0.1078 -5.93982,-1.23211 -1.39145,-0.44661 10.39269,6.61852 0.29293,0.17563 -0.64606,-0.23085 -0.94503,-0.39598 -1.16021,-0.64081 -1.98365,-1.62283 -2.68907,-2.72444 -1.00448,-1.44789 -0.65327,-0.84417 -1.48692,-2.4537 -0.57776,-1.11548 -0.6922,-1.06551 -0.72719,-2.28007 -0.007,-0.25075 -0.008,-0.51407 0.0832,-0.74797 0.0808,-0.2084 0.27463,-0.35274 0.41194,-0.52911 0.27229,-0.0869 0.53253,-0.23158 0.81686,-0.26068 0.77497,-0.0793 2.28931,0.17471 2.96858,0.30279 2.22909,0.42033 4.41487,1.04838 6.59443,1.66688 4.44287,1.27389 8.97589,2.21225 13.353,3.71792 z" />
  <ellipse
     style="fill:#ffff00;fill-opacity:1"
     id="path18"
     cx="217.1889"
     cy="193.73322"
     rx="8.0572968"
     ry="0.71620411" />
  <circle
     style="fill:#ffff00;fill-opacity:1"
     id="path19"
     cx="229.36436"
     cy="198.38853"
     r="10" />
  <ellipse
     style="fill:#ffff00;fill-opacity:1"
     id="path20"
     cx="251.74574"
     cy="218.97942"
     rx="22.560431"
     ry="23.813787" />
  <ellipse
     style="fill:#ffff00;fill-opacity:1"
     id="path21"
     cx="248.16473"
     cy="202.86482"
     rx="60.87735"
     ry="56.759178" />
  <ellipse
     style="fill:#ffff00;fill-opacity:1"
     id="path22"
     cx="243.68845"
     cy="208.95255"
     rx="56.401073"
     ry="58.907787" />
  <ellipse
     style="fill:#ffff00;fill-opacity:1"
     id="path23"
     cx="237.77977"
     cy="203.76007"
     rx="55.147717"
     ry="49.418083" />
  <ellipse
     style="fill:#ffff00;fill-opacity:1"
     id="path24"
     cx="238.85408"
     cy="186.03403"
     rx="61.235451"
     ry="57.47538" />
  <ellipse
     style="fill:#ffff00;fill-opacity:1"
     id="path25"
     cx="227.75291"
     cy="204.65532"
     rx="60.519249"
     ry="62.488808" />
</svg>
