<svg xmlns="http://www.w3.org/2000/svg" viewBox="0 0 200 100" width="200" height="100">
  <!-- Handshake Icon -->
  <g transform="translate(50, 50)">
    <rect x="-35" y="-35" width="70" height="70" rx="8" ry="8" fill="none" stroke="#1E3A5F" stroke-width="4"/>
    <!-- Left hand -->
    <path d="M -20 -15 L -15 -10 L -10 -5 L -5 0 L 0 3" 
          fill="none" stroke="#1E3A5F" stroke-width="3" stroke-linecap="round" stroke-linejoin="round"/>
    <!-- Right hand -->
    <path d="M 20 -15 L 15 -10 L 10 -5 L 5 0 L 0 3" 
          fill="none" stroke="#1E3A5F" stroke-width="3" stroke-linecap="round" stroke-linejoin="round"/>
    <!-- Handshake center -->
    <ellipse cx="0" cy="0" rx="8" ry="12" fill="#1E3A5F"/>
    <!-- Left sleeve -->
    <rect x="-25" y="-5" width="10" height="15" fill="#1E3A5F"/>
    <!-- Right sleeve -->
    <rect x="15" y="-5" width="10" height="15" fill="#1E3A5F"/>
  </g>
  
  <!-- Document with X Icon -->
  <g transform="translate(150, 50)">
    <rect x="-35" y="-35" width="70" height="70" rx="8" ry="8" fill="none" stroke="#1E3A5F" stroke-width="4"/>
    <!-- Document outline -->
    <path d="M -15 -20 L 5 -20 L 15 -10 L 15 20 L -15 20 Z" 
          fill="none" stroke="#1E3A5F" stroke-width="3"/>
    <!-- Folded corner -->
    <path d="M 5 -20 L 5 -10 L 15 -10" 
          fill="none" stroke="#1E3A5F" stroke-width="3" stroke-linejoin="round"/>
    <!-- Lines on document -->
    <line x1="-10" y1="-5" x2="5" y2="-5" stroke="#1E3A5F" stroke-width="2" stroke-linecap="round"/>
    <line x1="-10" y1="2" x2="10" y2="2" stroke="#1E3A5F" stroke-width="2" stroke-linecap="round"/>
    <line x1="-10" y1="9" x2="10" y2="9" stroke="#1E3A5F" stroke-width="2" stroke-linecap="round"/>
    <!-- X mark -->
    <line x1="2" y1="10" x2="12" y2="18" stroke="#1E3A5F" stroke-width="3" stroke-linecap="round"/>
    <line x1="12" y1="10" x2="2" y2="18" stroke="#1E3A5F" stroke-width="3" stroke-linecap="round"/>
  </g>
</svg>
